<svg id="visual" viewBox="0 0 900 600" width="900" height="600" xmlns="http://www.w3.org/2000/svg" xmlns:xlink="http://www.w3.org/1999/xlink" version="1.1"><rect x="0" y="0" width="900" height="600" fill="#ffffff"></rect><defs><linearGradient id="grad1_0" x1="33.3%" y1="0%" x2="100%" y2="100%"><stop offset="20%" stop-color="#1a1917" stop-opacity="1"></stop><stop offset="80%" stop-color="#1a1917" stop-opacity="1"></stop></linearGradient></defs><defs><linearGradient id="grad1_1" x1="33.3%" y1="0%" x2="100%" y2="100%"><stop offset="20%" stop-color="#1a1917" stop-opacity="1"></stop><stop offset="80%" stop-color="#ffffff" stop-opacity="1"></stop></linearGradient></defs><defs><linearGradient id="grad2_0" x1="0%" y1="0%" x2="66.7%" y2="100%"><stop offset="20%" stop-color="#1a1917" stop-opacity="1"></stop><stop offset="80%" stop-color="#1a1917" stop-opacity="1"></stop></linearGradient></defs><defs><linearGradient id="grad2_1" x1="0%" y1="0%" x2="66.7%" y2="100%"><stop offset="20%" stop-color="#ffffff" stop-opacity="1"></stop><stop offset="80%" stop-color="#1a1917" stop-opacity="1"></stop></linearGradient></defs><g transform="translate(900, 0)"><path d="M0 297.5C-40.7 291.4 -81.4 285.3 -109.4 264.2C-137.5 243.1 -152.8 206.9 -181.7 181.7C-210.7 156.5 -253.3 142.3 -274.8 113.8C-296.4 85.4 -296.9 42.7 -297.5 0L0 0Z" fill="#838281"></path><path d="M0 148.7C-20.4 145.7 -40.7 142.7 -54.7 132.1C-68.7 121.6 -76.4 103.5 -90.9 90.9C-105.3 78.3 -126.6 71.1 -137.4 56.9C-148.2 42.7 -148.5 21.3 -148.7 0L0 0Z" fill="#1a1917"></path></g><g transform="translate(0, 600)"><path d="M0 -297.5C39.6 -294.2 79.2 -290.9 113.8 -274.8C148.5 -258.8 178.1 -230 199.4 -199.4C220.7 -168.8 233.6 -136.5 248.5 -102.9C263.5 -69.4 280.5 -34.7 297.5 0L0 0Z" fill="#838281"></path><path d="M0 -148.7C19.8 -147.1 39.6 -145.4 56.9 -137.4C74.2 -129.4 89.1 -115 99.7 -99.7C110.3 -84.4 116.8 -68.2 124.3 -51.5C131.7 -34.7 140.2 -17.4 148.7 0L0 0Z" fill="#1a1917"></path></g></svg>